# Blender v3.0.1 OBJ File: ''
# www.blender.org
o Curve
v -0.000778 0.000000 0.002822
v -0.000891 0.000000 0.001919
v -0.000893 0.000000 0.001918
v -0.000898 0.000000 0.001916
v -0.000906 0.000000 0.001913
v -0.000918 0.000000 0.001908
v -0.000931 0.000000 0.001902
v -0.000947 0.000000 0.001895
v -0.000964 0.000000 0.001887
v -0.000983 0.000000 0.001878
v -0.001002 0.000000 0.001868
v -0.001023 0.000000 0.001858
v -0.001043 0.000000 0.001846
v -0.001064 0.000000 0.001834
v -0.001065 0.000000 0.001833
v -0.001070 0.000000 0.001830
v -0.001078 0.000000 0.001826
v -0.001088 0.000000 0.001819
v -0.001100 0.000000 0.001812
v -0.001114 0.000000 0.001802
v -0.001130 0.000000 0.001792
v -0.001147 0.000000 0.001781
v -0.001165 0.000000 0.001769
v -0.001184 0.000000 0.001756
v -0.001203 0.000000 0.001742
v -0.001222 0.000000 0.001728
v -0.001239 0.000000 0.001735
v -0.001285 0.000000 0.001755
v -0.001354 0.000000 0.001784
v -0.001440 0.000000 0.001820
v -0.001538 0.000000 0.001861
v -0.001642 0.000000 0.001905
v -0.001746 0.000000 0.001949
v -0.001844 0.000000 0.001990
v -0.001931 0.000000 0.002026
v -0.002000 0.000000 0.002055
v -0.002046 0.000000 0.002074
v -0.002062 0.000000 0.002081
v -0.002838 0.000000 0.000741
v -0.002111 0.000000 0.000191
v -0.002112 0.000000 0.000190
v -0.002112 0.000000 0.000187
v -0.002113 0.000000 0.000182
v -0.002113 0.000000 0.000176
v -0.002114 0.000000 0.000169
v -0.002115 0.000000 0.000160
v -0.002116 0.000000 0.000151
v -0.002117 0.000000 0.000140
v -0.002117 0.000000 0.000130
v -0.002118 0.000000 0.000118
v -0.002118 0.000000 0.000107
v -0.002119 0.000000 0.000095
v -0.002119 0.000000 0.000092
v -0.002119 0.000000 0.000081
v -0.002119 0.000000 0.000066
v -0.002119 0.000000 0.000046
v -0.002119 0.000000 0.000024
v -0.002119 0.000000 0.000000
v -0.002119 0.000000 -0.000023
v -0.002119 0.000000 -0.000046
v -0.002119 0.000000 -0.000065
v -0.002119 0.000000 -0.000081
v -0.002119 0.000000 -0.000091
v -0.002119 0.000000 -0.000095
v -0.002119 0.000000 -0.000096
v -0.002118 0.000000 -0.000099
v -0.002118 0.000000 -0.000103
v -0.002118 0.000000 -0.000109
v -0.002118 0.000000 -0.000116
v -0.002118 0.000000 -0.000124
v -0.002117 0.000000 -0.000133
v -0.002116 0.000000 -0.000144
v -0.002116 0.000000 -0.000155
v -0.002114 0.000000 -0.000166
v -0.002113 0.000000 -0.000178
v -0.002111 0.000000 -0.000190
v -0.002126 0.000000 -0.000201
v -0.002165 0.000000 -0.000231
v -0.002225 0.000000 -0.000276
v -0.002300 0.000000 -0.000333
v -0.002385 0.000000 -0.000397
v -0.002475 0.000000 -0.000465
v -0.002565 0.000000 -0.000534
v -0.002650 0.000000 -0.000598
v -0.002725 0.000000 -0.000655
v -0.002784 0.000000 -0.000700
v -0.002824 0.000000 -0.000730
v -0.002838 0.000000 -0.000741
v -0.002062 0.000000 -0.002081
v -0.001222 0.000000 -0.001728
v -0.001221 0.000000 -0.001729
v -0.001216 0.000000 -0.001733
v -0.001209 0.000000 -0.001738
v -0.001199 0.000000 -0.001745
v -0.001187 0.000000 -0.001753
v -0.001173 0.000000 -0.001763
v -0.001157 0.000000 -0.001773
v -0.001140 0.000000 -0.001785
v -0.001121 0.000000 -0.001797
v -0.001102 0.000000 -0.001809
v -0.001081 0.000000 -0.001821
v -0.001060 0.000000 -0.001834
v -0.001058 0.000000 -0.001835
v -0.001054 0.000000 -0.001838
v -0.001046 0.000000 -0.001842
v -0.001035 0.000000 -0.001848
v -0.001022 0.000000 -0.001855
v -0.001007 0.000000 -0.001863
v -0.000991 0.000000 -0.001872
v -0.000972 0.000000 -0.001881
v -0.000953 0.000000 -0.001890
v -0.000933 0.000000 -0.001900
v -0.000912 0.000000 -0.001909
v -0.000891 0.000000 -0.001919
v -0.000889 0.000000 -0.001936
v -0.000882 0.000000 -0.001985
v -0.000873 0.000000 -0.002060
v -0.000862 0.000000 -0.002153
v -0.000848 0.000000 -0.002258
v -0.000834 0.000000 -0.002370
v -0.000820 0.000000 -0.002482
v -0.000807 0.000000 -0.002587
v -0.000796 0.000000 -0.002680
v -0.000786 0.000000 -0.002755
v -0.000780 0.000000 -0.002804
v -0.000778 0.000000 -0.002822
v 0.000774 0.000000 -0.002822
v 0.000887 0.000000 -0.001919
v 0.000889 0.000000 -0.001918
v 0.000894 0.000000 -0.001916
v 0.000903 0.000000 -0.001912
v 0.000914 0.000000 -0.001908
v 0.000928 0.000000 -0.001902
v 0.000943 0.000000 -0.001895
v 0.000961 0.000000 -0.001887
v 0.000979 0.000000 -0.001878
v 0.000999 0.000000 -0.001868
v 0.001019 0.000000 -0.001857
v 0.001040 0.000000 -0.001846
v 0.001060 0.000000 -0.001834
v 0.001062 0.000000 -0.001833
v 0.001066 0.000000 -0.001830
v 0.001074 0.000000 -0.001825
v 0.001084 0.000000 -0.001819
v 0.001096 0.000000 -0.001811
v 0.001110 0.000000 -0.001802
v 0.001126 0.000000 -0.001792
v 0.001143 0.000000 -0.001781
v 0.001161 0.000000 -0.001768
v 0.001180 0.000000 -0.001756
v 0.001199 0.000000 -0.001742
v 0.001219 0.000000 -0.001728
v 0.001235 0.000000 -0.001735
v 0.001281 0.000000 -0.001754
v 0.001350 0.000000 -0.001783
v 0.001437 0.000000 -0.001820
v 0.001535 0.000000 -0.001861
v 0.001639 0.000000 -0.001904
v 0.001743 0.000000 -0.001948
v 0.001841 0.000000 -0.001989
v 0.001927 0.000000 -0.002026
v 0.001996 0.000000 -0.002055
v 0.002042 0.000000 -0.002074
v 0.002058 0.000000 -0.002081
v 0.002835 0.000000 -0.000741
v 0.002108 0.000000 -0.000190
v 0.002108 0.000000 -0.000189
v 0.002108 0.000000 -0.000186
v 0.002109 0.000000 -0.000182
v 0.002110 0.000000 -0.000176
v 0.002110 0.000000 -0.000168
v 0.002111 0.000000 -0.000160
v 0.002112 0.000000 -0.000150
v 0.002113 0.000000 -0.000140
v 0.002114 0.000000 -0.000129
v 0.002114 0.000000 -0.000118
v 0.002115 0.000000 -0.000107
v 0.002115 0.000000 -0.000095
v 0.002115 0.000000 -0.000091
v 0.002115 0.000000 -0.000081
v 0.002115 0.000000 -0.000065
v 0.002115 0.000000 -0.000046
v 0.002115 0.000000 -0.000023
v 0.002115 0.000000 0.000000
v 0.002115 0.000000 0.000024
v 0.002115 0.000000 0.000046
v 0.002115 0.000000 0.000066
v 0.002115 0.000000 0.000081
v 0.002115 0.000000 0.000092
v 0.002115 0.000000 0.000095
v 0.002115 0.000000 0.000096
v 0.002115 0.000000 0.000099
v 0.002115 0.000000 0.000103
v 0.002114 0.000000 0.000109
v 0.002114 0.000000 0.000116
v 0.002113 0.000000 0.000124
v 0.002112 0.000000 0.000134
v 0.002111 0.000000 0.000144
v 0.002109 0.000000 0.000155
v 0.002107 0.000000 0.000166
v 0.002104 0.000000 0.000178
v 0.002101 0.000000 0.000191
v 0.002115 0.000000 0.000201
v 0.002155 0.000000 0.000231
v 0.002214 0.000000 0.000277
v 0.002289 0.000000 0.000333
v 0.002374 0.000000 0.000398
v 0.002464 0.000000 0.000466
v 0.002554 0.000000 0.000534
v 0.002639 0.000000 0.000598
v 0.002714 0.000000 0.000655
v 0.002774 0.000000 0.000700
v 0.002813 0.000000 0.000730
v 0.002828 0.000000 0.000741
v 0.002051 0.000000 0.002081
v 0.001219 0.000000 0.001728
v 0.001217 0.000000 0.001730
v 0.001213 0.000000 0.001733
v 0.001205 0.000000 0.001738
v 0.001196 0.000000 0.001745
v 0.001184 0.000000 0.001753
v 0.001169 0.000000 0.001763
v 0.001154 0.000000 0.001773
v 0.001136 0.000000 0.001785
v 0.001118 0.000000 0.001797
v 0.001098 0.000000 0.001809
v 0.001078 0.000000 0.001822
v 0.001057 0.000000 0.001834
v 0.001055 0.000000 0.001835
v 0.001050 0.000000 0.001838
v 0.001042 0.000000 0.001842
v 0.001031 0.000000 0.001848
v 0.001019 0.000000 0.001855
v 0.001004 0.000000 0.001863
v 0.000987 0.000000 0.001872
v 0.000969 0.000000 0.001881
v 0.000949 0.000000 0.001891
v 0.000929 0.000000 0.001900
v 0.000908 0.000000 0.001910
v 0.000887 0.000000 0.001919
v 0.000885 0.000000 0.001937
v 0.000879 0.000000 0.001986
v 0.000870 0.000000 0.002060
v 0.000858 0.000000 0.002153
v 0.000845 0.000000 0.002259
v 0.000831 0.000000 0.002370
v 0.000817 0.000000 0.002482
v 0.000804 0.000000 0.002588
v 0.000792 0.000000 0.002681
v 0.000783 0.000000 0.002755
v 0.000777 0.000000 0.002804
v 0.000774 0.000000 0.002822
v -0.000284 0.000000 0.002257
v 0.000273 0.000000 0.002257
v 0.000372 0.000000 0.001510
v 0.000377 0.000000 0.001509
v 0.000389 0.000000 0.001505
v 0.000409 0.000000 0.001499
v 0.000436 0.000000 0.001491
v 0.000468 0.000000 0.001481
v 0.000505 0.000000 0.001468
v 0.000546 0.000000 0.001453
v 0.000590 0.000000 0.001436
v 0.000636 0.000000 0.001416
v 0.000683 0.000000 0.001394
v 0.000731 0.000000 0.001370
v 0.000778 0.000000 0.001344
v 0.000782 0.000000 0.001342
v 0.000792 0.000000 0.001335
v 0.000809 0.000000 0.001324
v 0.000832 0.000000 0.001310
v 0.000859 0.000000 0.001292
v 0.000891 0.000000 0.001270
v 0.000925 0.000000 0.001245
v 0.000962 0.000000 0.001217
v 0.001001 0.000000 0.001186
v 0.001041 0.000000 0.001153
v 0.001081 0.000000 0.001117
v 0.001120 0.000000 0.001079
v 0.001134 0.000000 0.001085
v 0.001172 0.000000 0.001101
v 0.001229 0.000000 0.001125
v 0.001301 0.000000 0.001154
v 0.001383 0.000000 0.001188
v 0.001469 0.000000 0.001224
v 0.001556 0.000000 0.001260
v 0.001637 0.000000 0.001294
v 0.001709 0.000000 0.001323
v 0.001767 0.000000 0.001347
v 0.001805 0.000000 0.001363
v 0.001819 0.000000 0.001369
v 0.002094 0.000000 0.000889
v 0.001487 0.000000 0.000430
v 0.001488 0.000000 0.000428
v 0.001490 0.000000 0.000423
v 0.001493 0.000000 0.000413
v 0.001497 0.000000 0.000401
v 0.001501 0.000000 0.000385
v 0.001506 0.000000 0.000367
v 0.001512 0.000000 0.000347
v 0.001517 0.000000 0.000325
v 0.001523 0.000000 0.000301
v 0.001528 0.000000 0.000276
v 0.001532 0.000000 0.000249
v 0.001536 0.000000 0.000222
v 0.001537 0.000000 0.000220
v 0.001537 0.000000 0.000214
v 0.001539 0.000000 0.000204
v 0.001540 0.000000 0.000190
v 0.001542 0.000000 0.000173
v 0.001543 0.000000 0.000154
v 0.001545 0.000000 0.000132
v 0.001547 0.000000 0.000108
v 0.001548 0.000000 0.000082
v 0.001549 0.000000 0.000056
v 0.001550 0.000000 0.000028
v 0.001550 0.000000 0.000000
v 0.001550 0.000000 -0.000002
v 0.001550 0.000000 -0.000009
v 0.001550 0.000000 -0.000019
v 0.001550 0.000000 -0.000033
v 0.001549 0.000000 -0.000050
v 0.001549 0.000000 -0.000070
v 0.001548 0.000000 -0.000092
v 0.001546 0.000000 -0.000116
v 0.001544 0.000000 -0.000141
v 0.001542 0.000000 -0.000168
v 0.001540 0.000000 -0.000195
v 0.001536 0.000000 -0.000222
v 0.001536 0.000000 -0.000224
v 0.001535 0.000000 -0.000231
v 0.001534 0.000000 -0.000241
v 0.001531 0.000000 -0.000254
v 0.001528 0.000000 -0.000270
v 0.001525 0.000000 -0.000289
v 0.001521 0.000000 -0.000310
v 0.001515 0.000000 -0.000332
v 0.001510 0.000000 -0.000356
v 0.001503 0.000000 -0.000380
v 0.001495 0.000000 -0.000405
v 0.001487 0.000000 -0.000430
v 0.001499 0.000000 -0.000439
v 0.001532 0.000000 -0.000464
v 0.001582 0.000000 -0.000502
v 0.001644 0.000000 -0.000549
v 0.001715 0.000000 -0.000603
v 0.001790 0.000000 -0.000659
v 0.001865 0.000000 -0.000716
v 0.001936 0.000000 -0.000770
v 0.001999 0.000000 -0.000817
v 0.002049 0.000000 -0.000855
v 0.002082 0.000000 -0.000880
v 0.002094 0.000000 -0.000889
v 0.001819 0.000000 -0.001368
v 0.001120 0.000000 -0.001072
v 0.001117 0.000000 -0.001075
v 0.001108 0.000000 -0.001085
v 0.001093 0.000000 -0.001099
v 0.001073 0.000000 -0.001118
v 0.001048 0.000000 -0.001141
v 0.001019 0.000000 -0.001167
v 0.000986 0.000000 -0.001195
v 0.000950 0.000000 -0.001225
v 0.000910 0.000000 -0.001255
v 0.000868 0.000000 -0.001286
v 0.000824 0.000000 -0.001315
v 0.000778 0.000000 -0.001344
v 0.000774 0.000000 -0.001346
v 0.000763 0.000000 -0.001352
v 0.000745 0.000000 -0.001362
v 0.000721 0.000000 -0.001374
v 0.000692 0.000000 -0.001389
v 0.000657 0.000000 -0.001405
v 0.000618 0.000000 -0.001423
v 0.000575 0.000000 -0.001441
v 0.000528 0.000000 -0.001460
v 0.000478 0.000000 -0.001478
v 0.000426 0.000000 -0.001494
v 0.000372 0.000000 -0.001509
v 0.000370 0.000000 -0.001524
v 0.000365 0.000000 -0.001565
v 0.000358 0.000000 -0.001626
v 0.000348 0.000000 -0.001703
v 0.000338 0.000000 -0.001791
v 0.000326 0.000000 -0.001883
v 0.000315 0.000000 -0.001976
v 0.000304 0.000000 -0.002063
v 0.000295 0.000000 -0.002140
v 0.000287 0.000000 -0.002202
v 0.000282 0.000000 -0.002243
v 0.000280 0.000000 -0.002257
v -0.000277 0.000000 -0.002257
v -0.000376 0.000000 -0.001509
v -0.000380 0.000000 -0.001508
v -0.000393 0.000000 -0.001505
v -0.000413 0.000000 -0.001499
v -0.000439 0.000000 -0.001491
v -0.000472 0.000000 -0.001480
v -0.000509 0.000000 -0.001468
v -0.000549 0.000000 -0.001453
v -0.000593 0.000000 -0.001435
v -0.000639 0.000000 -0.001416
v -0.000686 0.000000 -0.001394
v -0.000734 0.000000 -0.001370
v -0.000781 0.000000 -0.001344
v -0.000785 0.000000 -0.001341
v -0.000796 0.000000 -0.001335
v -0.000813 0.000000 -0.001324
v -0.000836 0.000000 -0.001310
v -0.000863 0.000000 -0.001291
v -0.000894 0.000000 -0.001270
v -0.000929 0.000000 -0.001245
v -0.000966 0.000000 -0.001217
v -0.001005 0.000000 -0.001186
v -0.001044 0.000000 -0.001153
v -0.001084 0.000000 -0.001117
v -0.001124 0.000000 -0.001079
v -0.001137 0.000000 -0.001085
v -0.001175 0.000000 -0.001101
v -0.001233 0.000000 -0.001124
v -0.001305 0.000000 -0.001154
v -0.001386 0.000000 -0.001188
v -0.001473 0.000000 -0.001224
v -0.001559 0.000000 -0.001260
v -0.001641 0.000000 -0.001293
v -0.001713 0.000000 -0.001323
v -0.001770 0.000000 -0.001347
v -0.001808 0.000000 -0.001363
v -0.001822 0.000000 -0.001368
v -0.002097 0.000000 -0.000889
v -0.001491 0.000000 -0.000437
v -0.001491 0.000000 -0.000435
v -0.001493 0.000000 -0.000429
v -0.001496 0.000000 -0.000419
v -0.001500 0.000000 -0.000406
v -0.001505 0.000000 -0.000390
v -0.001510 0.000000 -0.000371
v -0.001515 0.000000 -0.000350
v -0.001521 0.000000 -0.000327
v -0.001526 0.000000 -0.000303
v -0.001531 0.000000 -0.000278
v -0.001536 0.000000 -0.000252
v -0.001540 0.000000 -0.000226
v -0.001540 0.000000 -0.000223
v -0.001541 0.000000 -0.000217
v -0.001542 0.000000 -0.000207
v -0.001544 0.000000 -0.000194
v -0.001545 0.000000 -0.000177
v -0.001547 0.000000 -0.000158
v -0.001549 0.000000 -0.000136
v -0.001550 0.000000 -0.000112
v -0.001552 0.000000 -0.000086
v -0.001553 0.000000 -0.000058
v -0.001554 0.000000 -0.000029
v -0.001554 0.000000 0.000000
v -0.001554 0.000000 0.000002
v -0.001554 0.000000 0.000009
v -0.001554 0.000000 0.000019
v -0.001554 0.000000 0.000033
v -0.001553 0.000000 0.000050
v -0.001552 0.000000 0.000070
v -0.001551 0.000000 0.000092
v -0.001550 0.000000 0.000115
v -0.001548 0.000000 0.000140
v -0.001546 0.000000 0.000166
v -0.001543 0.000000 0.000192
v -0.001540 0.000000 0.000219
v -0.001540 0.000000 0.000221
v -0.001539 0.000000 0.000227
v -0.001537 0.000000 0.000237
v -0.001535 0.000000 0.000250
v -0.001532 0.000000 0.000266
v -0.001528 0.000000 0.000285
v -0.001524 0.000000 0.000306
v -0.001519 0.000000 0.000329
v -0.001513 0.000000 0.000353
v -0.001506 0.000000 0.000378
v -0.001499 0.000000 0.000404
v -0.001491 0.000000 0.000430
v -0.001503 0.000000 0.000439
v -0.001536 0.000000 0.000464
v -0.001585 0.000000 0.000502
v -0.001648 0.000000 0.000549
v -0.001719 0.000000 0.000603
v -0.001794 0.000000 0.000660
v -0.001869 0.000000 0.000716
v -0.001940 0.000000 0.000770
v -0.002003 0.000000 0.000817
v -0.002052 0.000000 0.000855
v -0.002085 0.000000 0.000880
v -0.002097 0.000000 0.000889
v -0.001822 0.000000 0.001369
v -0.001124 0.000000 0.001072
v -0.001121 0.000000 0.001076
v -0.001111 0.000000 0.001085
v -0.001096 0.000000 0.001099
v -0.001077 0.000000 0.001118
v -0.001052 0.000000 0.001141
v -0.001023 0.000000 0.001167
v -0.000990 0.000000 0.001195
v -0.000953 0.000000 0.001225
v -0.000914 0.000000 0.001255
v -0.000872 0.000000 0.001286
v -0.000827 0.000000 0.001316
v -0.000781 0.000000 0.001344
v -0.000778 0.000000 0.001346
v -0.000767 0.000000 0.001352
v -0.000749 0.000000 0.001362
v -0.000725 0.000000 0.001374
v -0.000695 0.000000 0.001389
v -0.000661 0.000000 0.001406
v -0.000621 0.000000 0.001423
v -0.000578 0.000000 0.001442
v -0.000531 0.000000 0.001460
v -0.000482 0.000000 0.001478
v -0.000430 0.000000 0.001495
v -0.000376 0.000000 0.001510
v -0.000374 0.000000 0.001524
v -0.000369 0.000000 0.001565
v -0.000361 0.000000 0.001627
v -0.000352 0.000000 0.001704
v -0.000341 0.000000 0.001791
v -0.000330 0.000000 0.001884
v -0.000319 0.000000 0.001976
v -0.000308 0.000000 0.002064
v -0.000298 0.000000 0.002141
v -0.000291 0.000000 0.002202
v -0.000286 0.000000 0.002243
v 0.000012 0.000000 0.000988
v 0.000021 0.000000 0.000988
v 0.000044 0.000000 0.000986
v 0.000081 0.000000 0.000983
v 0.000129 0.000000 0.000977
v 0.000187 0.000000 0.000967
v 0.000253 0.000000 0.000952
v 0.000325 0.000000 0.000930
v 0.000401 0.000000 0.000902
v 0.000480 0.000000 0.000866
v 0.000559 0.000000 0.000820
v 0.000636 0.000000 0.000765
v 0.000711 0.000000 0.000699
v 0.000717 0.000000 0.000693
v 0.000732 0.000000 0.000675
v 0.000756 0.000000 0.000647
v 0.000786 0.000000 0.000608
v 0.000820 0.000000 0.000560
v 0.000855 0.000000 0.000503
v 0.000891 0.000000 0.000437
v 0.000925 0.000000 0.000363
v 0.000955 0.000000 0.000282
v 0.000979 0.000000 0.000194
v 0.000994 0.000000 0.000100
v 0.001000 0.000000 0.000000
v 0.001000 0.000000 -0.000008
v 0.000999 0.000000 -0.000032
v 0.000996 0.000000 -0.000068
v 0.000989 0.000000 -0.000117
v 0.000979 0.000000 -0.000175
v 0.000964 0.000000 -0.000241
v 0.000943 0.000000 -0.000312
v 0.000914 0.000000 -0.000389
v 0.000878 0.000000 -0.000467
v 0.000833 0.000000 -0.000546
v 0.000777 0.000000 -0.000624
v 0.000711 0.000000 -0.000698
v 0.000705 0.000000 -0.000704
v 0.000687 0.000000 -0.000720
v 0.000659 0.000000 -0.000743
v 0.000621 0.000000 -0.000773
v 0.000572 0.000000 -0.000807
v 0.000515 0.000000 -0.000843
v 0.000449 0.000000 -0.000879
v 0.000375 0.000000 -0.000912
v 0.000294 0.000000 -0.000942
v 0.000206 0.000000 -0.000966
v 0.000112 0.000000 -0.000982
v 0.000012 0.000000 -0.000987
v 0.000004 0.000000 -0.000987
v -0.000020 0.000000 -0.000986
v -0.000057 0.000000 -0.000983
v -0.000106 0.000000 -0.000977
v -0.000165 0.000000 -0.000966
v -0.000232 0.000000 -0.000951
v -0.000304 0.000000 -0.000930
v -0.000381 0.000000 -0.000902
v -0.000459 0.000000 -0.000865
v -0.000539 0.000000 -0.000820
v -0.000616 0.000000 -0.000765
v -0.000690 0.000000 -0.000698
v -0.000695 0.000000 -0.000692
v -0.000711 0.000000 -0.000675
v -0.000734 0.000000 -0.000647
v -0.000764 0.000000 -0.000608
v -0.000797 0.000000 -0.000560
v -0.000833 0.000000 -0.000502
v -0.000868 0.000000 -0.000437
v -0.000901 0.000000 -0.000363
v -0.000931 0.000000 -0.000282
v -0.000954 0.000000 -0.000194
v -0.000970 0.000000 -0.000100
v -0.000976 0.000000 0.000000
v -0.000975 0.000000 0.000008
v -0.000974 0.000000 0.000032
v -0.000971 0.000000 0.000069
v -0.000965 0.000000 0.000117
v -0.000955 0.000000 0.000175
v -0.000940 0.000000 0.000241
v -0.000919 0.000000 0.000313
v -0.000891 0.000000 0.000389
v -0.000855 0.000000 0.000467
v -0.000810 0.000000 0.000546
v -0.000755 0.000000 0.000624
v -0.000690 0.000000 0.000699
v -0.000684 0.000000 0.000704
v -0.000667 0.000000 0.000720
v -0.000639 0.000000 0.000744
v -0.000600 0.000000 0.000774
v -0.000552 0.000000 0.000807
v -0.000495 0.000000 0.000843
v -0.000429 0.000000 0.000879
v -0.000355 0.000000 0.000913
v -0.000273 0.000000 0.000943
v -0.000184 0.000000 0.000966
v -0.000089 0.000000 0.000982
s off
f 125 127 126
f 125 391 127
f 391 128 127
f 124 391 125
f 123 391 124
f 122 391 123
f 121 391 122
f 120 391 121
f 119 391 120
f 118 392 119
f 392 391 119
f 118 393 392
f 390 128 391
f 389 128 390
f 388 128 389
f 117 393 118
f 387 128 388
f 88 429 89
f 429 90 89
f 163 165 164
f 162 165 163
f 386 128 387
f 116 393 117
f 161 165 162
f 160 165 161
f 159 165 160
f 115 393 116
f 385 128 386
f 158 165 159
f 114 393 115
f 113 393 114
f 385 129 128
f 385 130 129
f 385 131 130
f 385 132 131
f 112 393 113
f 385 133 132
f 157 165 158
f 385 134 133
f 111 393 112
f 385 135 134
f 110 393 111
f 385 136 135
f 384 136 385
f 109 393 110
f 384 137 136
f 108 393 109
f 384 138 137
f 107 393 108
f 156 165 157
f 384 139 138
f 106 393 107
f 105 393 106
f 384 140 139
f 104 393 105
f 103 393 104
f 102 393 103
f 101 393 102
f 384 141 140
f 384 142 141
f 384 143 142
f 384 144 143
f 100 393 101
f 155 165 156
f 384 145 144
f 384 146 145
f 99 393 100
f 384 147 146
f 98 393 99
f 384 148 147
f 383 148 384
f 97 393 98
f 154 165 155
f 383 149 148
f 96 393 97
f 383 150 149
f 95 393 96
f 383 151 150
f 153 165 154
f 94 393 95
f 93 393 94
f 383 152 151
f 92 393 93
f 152 354 153
f 354 165 153
f 91 393 92
f 90 393 91
f 429 393 90
f 383 354 152
f 382 354 383
f 381 354 382
f 380 354 381
f 379 354 380
f 429 394 393
f 378 354 379
f 429 395 394
f 429 396 395
f 429 397 396
f 377 354 378
f 429 398 397
f 429 399 398
f 376 354 377
f 429 400 399
f 375 354 376
f 429 401 400
f 374 354 375
f 429 402 401
f 373 354 374
f 429 403 402
f 372 354 373
f 429 404 403
f 371 354 372
f 370 354 371
f 429 405 404
f 88 430 429
f 428 405 429
f 370 369 354
f 369 368 354
f 368 367 354
f 367 366 354
f 366 365 354
f 365 364 354
f 364 363 354
f 363 362 354
f 362 361 354
f 361 360 354
f 360 359 354
f 359 358 354
f 358 357 354
f 357 356 354
f 356 355 354
f 353 165 354
f 427 405 428
f 426 405 427
f 426 406 405
f 426 407 406
f 426 408 407
f 426 409 408
f 425 409 426
f 425 410 409
f 424 410 425
f 424 411 410
f 424 412 411
f 423 412 424
f 423 413 412
f 422 413 423
f 422 414 413
f 421 414 422
f 421 415 414
f 420 415 421
f 420 416 415
f 419 416 420
f 419 418 416
f 418 417 416
f 578 576 577
f 579 576 578
f 580 576 579
f 581 576 580
f 581 575 576
f 582 575 581
f 583 575 582
f 583 574 575
f 584 574 583
f 584 573 574
f 585 573 584
f 585 572 573
f 586 572 585
f 88 431 430
f 352 165 353
f 351 165 352
f 586 571 572
f 587 571 586
f 350 165 351
f 587 570 571
f 588 570 587
f 349 165 350
f 588 569 570
f 588 568 569
f 348 165 349
f 589 568 588
f 589 567 568
f 87 431 88
f 348 166 165
f 86 431 87
f 589 566 567
f 347 166 348
f 589 565 566
f 85 431 86
f 590 565 589
f 590 564 565
f 591 564 590
f 592 564 591
f 346 166 347
f 84 431 85
f 593 564 592
f 593 563 564
f 594 563 593
f 345 166 346
f 83 431 84
f 595 563 594
f 344 166 345
f 595 562 563
f 82 431 83
f 596 562 595
f 343 166 344
f 596 561 562
f 81 431 82
f 342 166 343
f 341 166 342
f 81 432 431
f 597 561 596
f 81 433 432
f 340 166 341
f 81 434 433
f 81 435 434
f 81 436 435
f 339 166 340
f 80 436 81
f 80 437 436
f 597 560 561
f 338 166 339
f 80 438 437
f 598 560 597
f 337 166 338
f 80 439 438
f 79 439 80
f 336 166 337
f 79 440 439
f 598 559 560
f 335 166 336
f 79 441 440
f 334 166 335
f 599 559 598
f 79 442 441
f 78 442 79
f 333 166 334
f 332 166 333
f 78 443 442
f 331 166 332
f 599 558 559
f 77 443 78
f 330 166 331
f 77 444 443
f 329 166 330
f 77 445 444
f 328 166 329
f 77 446 445
f 77 447 446
f 76 447 77
f 327 166 328
f 76 448 447
f 600 558 599
f 75 448 76
f 327 167 166
f 327 168 167
f 327 169 168
f 327 170 169
f 74 448 75
f 74 449 448
f 327 171 170
f 600 557 558
f 327 172 171
f 326 172 327
f 73 449 74
f 326 173 172
f 73 450 449
f 72 450 73
f 326 174 173
f 71 450 72
f 325 174 326
f 325 175 174
f 71 451 450
f 70 451 71
f 325 176 175
f 69 451 70
f 325 177 176
f 600 556 557
f 324 177 325
f 68 451 69
f 68 452 451
f 67 452 68
f 324 178 177
f 66 452 67
f 601 556 600
f 65 452 66
f 64 452 65
f 63 452 64
f 324 179 178
f 323 179 324
f 323 180 179
f 62 452 63
f 62 453 452
f 323 181 180
f 61 453 62
f 322 181 323
f 601 555 556
f 322 182 181
f 60 453 61
f 60 454 453
f 321 182 322
f 321 183 182
f 59 454 60
f 320 183 321
f 601 554 555
f 59 455 454
f 320 184 183
f 58 455 59
f 319 184 320
f 318 184 319
f 601 553 554
f 317 184 318
f 58 456 455
f 602 553 601
f 602 552 553
f 316 184 317
f 316 185 184
f 57 456 58
f 57 457 456
f 603 552 602
f 57 458 457
f 57 459 458
f 316 186 185
f 56 459 57
f 315 186 316
f 604 552 603
f 56 460 459
f 315 187 186
f 55 460 56
f 55 461 460
f 314 187 315
f 314 188 187
f 54 461 55
f 605 552 604
f 54 462 461
f 314 189 188
f 53 462 54
f 313 189 314
f 53 463 462
f 313 190 189
f 52 463 53
f 51 463 52
f 313 191 190
f 313 192 191
f 313 193 192
f 605 551 552
f 313 194 193
f 50 463 51
f 312 194 313
f 312 195 194
f 50 464 463
f 312 196 195
f 606 551 605
f 49 464 50
f 312 197 196
f 48 464 49
f 311 197 312
f 311 198 197
f 48 465 464
f 47 465 48
f 311 199 198
f 46 465 47
f 310 199 311
f 310 200 199
f 45 465 46
f 45 466 465
f 310 201 200
f 44 466 45
f 309 201 310
f 607 551 606
f 43 466 44
f 309 202 201
f 42 466 43
f 41 466 42
f 40 466 41
f 308 202 309
f 39 466 40
f 308 203 202
f 39 467 466
f 607 550 551
f 308 204 203
f 307 204 308
f 306 204 307
f 39 468 467
f 305 204 306
f 39 469 468
f 304 204 305
f 39 470 469
f 304 205 204
f 39 471 470
f 608 550 607
f 303 205 304
f 39 472 471
f 39 473 472
f 302 205 303
f 302 206 205
f 608 549 550
f 39 474 473
f 301 206 302
f 39 475 474
f 609 549 608
f 300 206 301
f 39 476 475
f 300 207 206
f 299 207 300
f 39 477 476
f 609 548 549
f 298 207 299
f 39 478 477
f 297 207 298
f 610 548 609
f 297 208 207
f 296 208 297
f 39 479 478
f 295 208 296
f 294 208 295
f 293 208 294
f 39 480 479
f 292 208 293
f 610 547 548
f 39 481 480
f 39 482 481
f 292 209 208
f 611 547 610
f 39 483 482
f 611 546 547
f 292 210 209
f 612 546 611
f 39 484 483
f 612 545 546
f 292 211 210
f 39 485 484
f 612 544 545
f 613 544 612
f 613 543 544
f 292 212 211
f 39 486 485
f 613 542 543
f 613 541 542
f 614 541 613
f 614 540 541
f 292 213 212
f 615 540 614
f 39 487 486
f 616 540 615
f 292 214 213
f 38 491 39
f 491 490 39
f 490 489 39
f 489 487 39
f 292 215 214
f 617 540 616
f 617 539 540
f 489 488 487
f 618 539 617
f 619 539 618
f 619 538 539
f 620 538 619
f 620 537 538
f 621 537 620
f 38 492 491
f 291 215 292
f 621 536 537
f 622 536 621
f 622 535 536
f 623 535 622
f 623 534 535
f 624 534 623
f 624 533 534
f 624 532 533
f 529 532 624
f 529 531 532
f 529 530 531
f 492 494 493
f 492 495 494
f 278 280 279
f 492 496 495
f 278 281 280
f 492 497 496
f 278 282 281
f 277 282 278
f 492 498 497
f 277 283 282
f 492 499 498
f 276 283 277
f 276 284 283
f 492 500 499
f 275 284 276
f 275 285 284
f 492 501 500
f 274 285 275
f 274 286 285
f 492 502 501
f 273 286 274
f 492 503 502
f 273 287 286
f 272 287 273
f 492 504 503
f 271 287 272
f 271 288 287
f 270 288 271
f 492 505 504
f 270 289 288
f 269 289 270
f 268 289 269
f 267 289 268
f 492 506 505
f 266 289 267
f 492 507 506
f 266 290 289
f 492 508 507
f 492 509 508
f 266 291 290
f 38 509 492
f 266 215 291
f 265 215 266
f 38 510 509
f 38 511 510
f 264 215 265
f 38 512 511
f 263 215 264
f 38 513 512
f 262 216 263
f 216 215 263
f 38 26 513
f 26 514 513
f 261 216 262
f 26 515 514
f 260 216 261
f 26 516 515
f 259 216 260
f 258 216 259
f 26 517 516
f 257 216 258
f 256 216 257
f 255 216 256
f 26 518 517
f 254 216 255
f 26 519 518
f 26 520 519
f 26 521 520
f 26 522 521
f 38 27 26
f 25 522 26
f 254 217 216
f 254 218 217
f 254 219 218
f 38 31 27
f 31 28 27
f 254 220 219
f 24 522 25
f 254 221 220
f 254 222 221
f 31 29 28
f 23 522 24
f 254 240 222
f 240 223 222
f 22 522 23
f 240 224 223
f 21 522 22
f 31 30 29
f 240 225 224
f 21 523 522
f 20 523 21
f 240 226 225
f 19 523 20
f 240 227 226
f 18 523 19
f 17 523 18
f 240 228 227
f 16 523 17
f 15 523 16
f 14 523 15
f 13 523 14
f 240 229 228
f 240 230 229
f 240 231 230
f 240 232 231
f 12 523 13
f 240 233 232
f 240 234 233
f 11 523 12
f 38 32 31
f 240 235 234
f 10 523 11
f 240 236 235
f 9 523 10
f 240 237 236
f 9 524 523
f 8 524 9
f 240 238 237
f 7 524 8
f 240 239 238
f 6 524 7
f 38 34 32
f 34 33 32
f 5 524 6
f 4 524 5
f 3 524 4
f 2 524 3
f 1 524 2
f 254 241 240
f 254 242 241
f 1 525 524
f 254 243 242
f 38 35 34
f 38 36 35
f 38 37 36
f 254 244 243
f 1 526 525
f 1 527 526
f 254 245 244
f 1 528 527
f 1 253 528
f 1 254 253
f 1 245 254
f 1 246 245
f 1 247 246
f 1 248 247
f 1 249 248
f 1 250 249
f 1 251 250
f 1 252 251
